<svg width="47" height="48" viewBox="0 0 47 48" fill="none" xmlns="http://www.w3.org/2000/svg">
<g clip-path="url(#clip0_2411_214900)">
<circle cx="23.5" cy="23.8008" r="23.5" fill="url(#paint0_linear_2411_214900)"/>
<path d="M32.8825 36.2112C33.4209 37.1437 34.6132 37.4632 35.5457 36.9248C36.4782 36.3864 36.7977 35.1941 36.2593 34.2616L34.3003 30.8685H37.1473C38.224 30.8685 39.0969 29.9956 39.0969 28.9189C39.0969 27.8421 38.224 26.9692 37.1473 26.9692H32.0491L26.424 17.2262C25.4809 18.5189 24.478 20.1596 24.8417 22.2841L32.8825 36.2112Z" fill="white"/>
<path d="M21.2486 16.0608L19.2351 12.5732C18.6967 11.6407 19.0162 10.4483 19.9487 9.90996C20.8812 9.37159 22.0736 9.69108 22.6119 10.6236L23.4999 12.1615L24.3878 10.6236C24.9262 9.69109 26.1185 9.37159 27.051 9.90996C27.9835 10.4483 28.303 11.6407 27.7646 12.5732L19.4531 26.9692H25.7927C26.9522 27.3671 27.8865 28.6728 27.8865 29.8937C27.8865 30.1789 27.8189 30.5134 27.7084 30.8685H9.85246C8.77571 30.8685 7.90283 29.9956 7.90283 28.9189C7.90283 27.8421 8.77571 26.9692 9.85246 26.9692H14.9506L21.2486 16.0608Z" fill="white"/>
<path d="M13.7517 31.5996C14.5759 31.5996 15.313 32.0352 16.1104 32.759L14.1172 36.2112C13.5789 37.1437 12.3865 37.4632 11.454 36.9248C10.5215 36.3864 10.202 35.1941 10.7404 34.2616L12.1441 31.8303C12.5281 31.7129 12.7408 31.6552 12.9574 31.6269C13.1663 31.5996 13.3787 31.5996 13.7517 31.5996Z" fill="white"/>
</g>
<defs>
<linearGradient id="paint0_linear_2411_214900" x1="23.5" y1="0.300781" x2="23.5" y2="47.3008" gradientUnits="userSpaceOnUse">
<stop stop-color="#15C7FA"/>
<stop offset="1" stop-color="#216FF0"/>
</linearGradient>
<clipPath id="clip0_2411_214900">
<rect width="47" height="47" fill="white" transform="translate(0 0.300781)"/>
</clipPath>
</defs>
</svg>
