<svg width="1728" height="2608" viewBox="0 0 1728 2608" fill="none" xmlns="http://www.w3.org/2000/svg">
<g clip-path="url(#clip0_2475_211423)">
<rect width="2015.27" height="2608" transform="translate(-39.7954)" fill="white"/>
<path d="M-39.7954 0L1975.48 0.000176181" stroke="#D0E5F9" stroke-width="3.29293"/>
<path d="M-39.7954 52.6875L1975.48 52.6877" stroke="#D0E5F9" stroke-width="3.29293"/>
<path d="M-39.7954 105.375L1975.48 105.375" stroke="#D0E5F9" stroke-width="3.29293"/>
<path d="M-39.7954 158.061L1975.48 158.061" stroke="#D0E5F9" stroke-width="3.29293"/>
<path d="M-39.7954 210.748L1975.48 210.748" stroke="#D0E5F9" stroke-width="3.29293"/>
<path d="M-39.7954 263.436L1975.48 263.436" stroke="#D0E5F9" stroke-width="3.29293"/>
<path d="M-39.7954 316.123L1975.48 316.123" stroke="#D0E5F9" stroke-width="3.29293"/>
<path d="M-39.7954 368.809L1975.48 368.809" stroke="#D0E5F9" stroke-width="3.29293"/>
<path d="M-39.7954 421.496L1975.48 421.496" stroke="#D0E5F9" stroke-width="3.29293"/>
<path d="M-39.7954 474.184L1975.48 474.184" stroke="#D0E5F9" stroke-width="3.29293"/>
<path d="M-39.7954 526.871L1975.48 526.871" stroke="#D0E5F9" stroke-width="3.29293"/>
<path d="M-39.7954 579.557L1975.48 579.557" stroke="#D0E5F9" stroke-width="3.29293"/>
<path d="M-39.7954 632.244L1975.48 632.244" stroke="#D0E5F9" stroke-width="3.29293"/>
<path d="M-39.7954 684.932L1975.48 684.932" stroke="#D0E5F9" stroke-width="3.29293"/>
<path d="M-39.7954 737.619L1975.48 737.619" stroke="#D0E5F9" stroke-width="3.29293"/>
<path d="M-39.7954 790.307L1975.48 790.307" stroke="#D0E5F9" stroke-width="3.29293"/>
<path d="M-39.7954 842.992L1975.48 842.992" stroke="#D0E5F9" stroke-width="3.29293"/>
<path d="M-39.7954 895.68L1975.48 895.68" stroke="#D0E5F9" stroke-width="3.29293"/>
<path d="M-39.7954 948.367L1975.48 948.367" stroke="#D0E5F9" stroke-width="3.29293"/>
<path d="M-39.7954 1001.05L1975.48 1001.05" stroke="#D0E5F9" stroke-width="3.29293"/>
<path d="M-39.7954 1053.74L1975.48 1053.74" stroke="#D0E5F9" stroke-width="3.29293"/>
<path d="M-39.7954 1106.43L1975.48 1106.43" stroke="#D0E5F9" stroke-width="3.29293"/>
<path d="M-39.7954 1159.12L1975.48 1159.12" stroke="#D0E5F9" stroke-width="3.29293"/>
<path d="M-39.7954 1211.8L1975.48 1211.8" stroke="#D0E5F9" stroke-width="3.29293"/>
<path d="M-39.7954 1264.49L1975.48 1264.49" stroke="#D0E5F9" stroke-width="3.29293"/>
<path d="M-39.7954 1317.18L1975.48 1317.18" stroke="#D0E5F9" stroke-width="3.29293"/>
<path d="M-39.7954 1369.86L1975.48 1369.86" stroke="#D0E5F9" stroke-width="3.29293"/>
<path d="M-39.7954 1422.55L1975.48 1422.55" stroke="#D0E5F9" stroke-width="3.29293"/>
<path d="M-39.7954 1475.24L1975.48 1475.24" stroke="#D0E5F9" stroke-width="3.29293"/>
<path d="M-39.7954 1527.92L1975.48 1527.92" stroke="#D0E5F9" stroke-width="3.29293"/>
<path d="M-39.7954 1580.61L1975.48 1580.61" stroke="#D0E5F9" stroke-width="3.29293"/>
<path d="M-39.7954 1633.3L1975.48 1633.3" stroke="#D0E5F9" stroke-width="3.29293"/>
<path d="M-39.7954 1685.98L1975.48 1685.98" stroke="#D0E5F9" stroke-width="3.29293"/>
<path d="M-39.7954 1738.67L1975.48 1738.67" stroke="#D0E5F9" stroke-width="3.29293"/>
<path d="M-39.7954 1791.36L1975.48 1791.36" stroke="#D0E5F9" stroke-width="3.29293"/>
<path d="M-39.7954 1844.05L1975.48 1844.05" stroke="#D0E5F9" stroke-width="3.29293"/>
<path d="M-39.7954 1896.73L1975.48 1896.73" stroke="#D0E5F9" stroke-width="3.29293"/>
<path d="M-39.7954 1949.42L1975.48 1949.42" stroke="#D0E5F9" stroke-width="3.29293"/>
<path d="M-39.7954 2002.11L1975.48 2002.11" stroke="#D0E5F9" stroke-width="3.29293"/>
<path d="M-39.7954 2054.79L1975.48 2054.8" stroke="#D0E5F9" stroke-width="3.29293"/>
<path d="M-39.7954 2107.48L1975.48 2107.48" stroke="#D0E5F9" stroke-width="3.29293"/>
<path d="M-39.7954 2160.17L1975.48 2160.17" stroke="#D0E5F9" stroke-width="3.29293"/>
<path d="M-39.7954 2212.86L1975.48 2212.86" stroke="#D0E5F9" stroke-width="3.29293"/>
<path d="M-39.7954 2265.54L1975.48 2265.54" stroke="#D0E5F9" stroke-width="3.29293"/>
<path d="M-39.7954 2318.23L1975.48 2318.23" stroke="#D0E5F9" stroke-width="3.29293"/>
<path d="M-39.7954 2370.92L1975.48 2370.92" stroke="#D0E5F9" stroke-width="3.29293"/>
<path d="M-39.7954 2423.6L1975.48 2423.6" stroke="#D0E5F9" stroke-width="3.29293"/>
<path d="M-39.7954 2476.29L1975.48 2476.29" stroke="#D0E5F9" stroke-width="3.29293"/>
<path d="M-39.7954 2528.98L1975.48 2528.98" stroke="#D0E5F9" stroke-width="3.29293"/>
<path d="M-39.7954 2581.66L1975.48 2581.66" stroke="#D0E5F9" stroke-width="3.29293"/>
<path d="M19.4771 0V2608" stroke="#D0E5F9" stroke-width="3.29293"/>
<path d="M72.1641 0V2608" stroke="#D0E5F9" stroke-width="3.29293"/>
<path d="M124.851 0V2608" stroke="#D0E5F9" stroke-width="3.29293"/>
<path d="M177.538 0V2608" stroke="#D0E5F9" stroke-width="3.29293"/>
<path d="M230.225 0V2608" stroke="#D0E5F9" stroke-width="3.29293"/>
<path d="M282.911 0V2608" stroke="#D0E5F9" stroke-width="3.29293"/>
<path d="M335.598 0V2608" stroke="#D0E5F9" stroke-width="3.29293"/>
<path d="M388.285 0V2608" stroke="#D0E5F9" stroke-width="3.29293"/>
<path d="M440.972 0V2608" stroke="#D0E5F9" stroke-width="3.29293"/>
<path d="M493.659 0V2608" stroke="#D0E5F9" stroke-width="3.29293"/>
<path d="M546.346 0V2608" stroke="#D0E5F9" stroke-width="3.29293"/>
<path d="M599.033 0V2608" stroke="#D0E5F9" stroke-width="3.29293"/>
<path d="M651.72 0V2608" stroke="#D0E5F9" stroke-width="3.29293"/>
<path d="M704.406 0V2608" stroke="#D0E5F9" stroke-width="3.29293"/>
<path d="M757.094 0V2608" stroke="#D0E5F9" stroke-width="3.29293"/>
<path d="M809.78 0V2608" stroke="#D0E5F9" stroke-width="3.29293"/>
<path d="M862.467 0V2608" stroke="#D0E5F9" stroke-width="3.29293"/>
<path d="M915.154 0V2608" stroke="#D0E5F9" stroke-width="3.29293"/>
<path d="M967.841 0V2608" stroke="#D0E5F9" stroke-width="3.29293"/>
<path d="M1020.53 0V2608" stroke="#D0E5F9" stroke-width="3.29293"/>
<path d="M1073.21 0V2608" stroke="#D0E5F9" stroke-width="3.29293"/>
<path d="M1125.9 0V2608" stroke="#D0E5F9" stroke-width="3.29293"/>
<path d="M1178.59 0V2608" stroke="#D0E5F9" stroke-width="3.29293"/>
<path d="M1231.28 0V2608" stroke="#D0E5F9" stroke-width="3.29293"/>
<path d="M1283.96 0V2608" stroke="#D0E5F9" stroke-width="3.29293"/>
<path d="M1336.65 0V2608" stroke="#D0E5F9" stroke-width="3.29293"/>
<path d="M1389.34 0V2608" stroke="#D0E5F9" stroke-width="3.29293"/>
<path d="M1442.02 0V2608" stroke="#D0E5F9" stroke-width="3.29293"/>
<path d="M1494.71 0V2608" stroke="#D0E5F9" stroke-width="3.29293"/>
<path d="M1547.4 0V2608" stroke="#D0E5F9" stroke-width="3.29293"/>
<path d="M1600.08 0V2608" stroke="#D0E5F9" stroke-width="3.29293"/>
<path d="M1652.77 0V2608" stroke="#D0E5F9" stroke-width="3.29293"/>
<path d="M1705.46 0V2608" stroke="#D0E5F9" stroke-width="3.29293"/>
</g>
<defs>
<clipPath id="clip0_2475_211423">
<rect width="2015.27" height="2608" fill="white" transform="translate(-39.7954)"/>
</clipPath>
</defs>
</svg>
