<svg width="46" height="47" viewBox="0 0 46 47" fill="none" xmlns="http://www.w3.org/2000/svg">
<path d="M23 46.3008C35.7025 46.3008 46 36.0033 46 23.3008C46 10.5982 35.7025 0.300781 23 0.300781C10.2975 0.300781 0 10.5982 0 23.3008C0 36.0033 10.2975 46.3008 23 46.3008Z" fill="#F4F4F4"/>
<path d="M23.8259 22.7148L12.5559 34.4971C12.9218 35.7412 14.0927 36.6926 15.4832 36.6926C16.0686 36.6926 16.5809 36.5462 17.02 36.2535L29.7536 29.0085L23.8259 22.7148Z" fill="#EA4335"/>
<path d="M35.2422 20.6663L29.7536 17.5195L23.6063 22.935L29.8268 29.0091L35.3154 25.9354C36.2668 25.4232 36.9254 24.3986 36.9254 23.3009C36.8522 22.2032 36.1936 21.1786 35.2422 20.6663Z" fill="#FBBC04"/>
<path d="M12.5558 12.1035C12.4827 12.3231 12.4827 12.6158 12.4827 12.9085V33.7653C12.4827 34.0581 12.4827 34.2776 12.5558 34.5703L24.2649 23.0808L12.5558 12.1035Z" fill="#4285F4"/>
<path d="M23.8991 23.3005L29.7536 17.5191L17.0932 10.3473C16.6541 10.0546 16.0686 9.9082 15.4832 9.9082C14.0927 9.9082 12.8486 10.8596 12.5559 12.1037L23.8991 23.3005Z" fill="#34A853"/>
</svg>
