<svg width="65" height="58" viewBox="0 0 65 58" fill="none" xmlns="http://www.w3.org/2000/svg">
<path d="M17.3324 16.7356C14.0104 18.6547 11.6249 21.8235 10.9591 25.5371C8.69466 24.7858 7.06396 22.6495 7.06396 20.1323C7.06396 16.9884 9.61326 14.4355 12.7607 14.4355C14.6335 14.4355 16.2963 15.3399 17.3324 16.7356Z" fill="#404142"/>
<path d="M57.622 20.0288C57.622 22.6706 55.8275 24.8888 53.3886 25.5368C52.7655 21.8731 50.469 18.7292 47.2468 16.7816C48.2758 15.3005 49.9848 14.332 51.9253 14.332C55.0727 14.332 57.622 16.8849 57.622 20.0288Z" fill="#404142"/>
<path d="M22.9119 38.1958C23.9934 38.1958 24.8701 37.3191 24.8701 36.2376C24.8701 35.156 23.9934 34.2793 22.9119 34.2793C21.8304 34.2793 20.9536 35.156 20.9536 36.2376C20.9536 37.3191 21.8304 38.1958 22.9119 38.1958Z" fill="#404142"/>
<path d="M41.7825 38.1958C42.864 38.1958 43.7407 37.3191 43.7407 36.2376C43.7407 35.156 42.864 34.2793 41.7825 34.2793C40.701 34.2793 39.8242 35.156 39.8242 36.2376C39.8242 37.3191 40.701 38.1958 41.7825 38.1958Z" fill="#404142"/>
<path d="M36.9542 48.6771C37.061 51.1125 35.1134 53.1491 32.6781 53.1491H32.0123C29.5733 53.1491 27.6293 51.1125 27.7361 48.6771L28.0673 41.2179C28.1705 38.9285 30.054 37.127 32.3434 37.127C33.4898 37.127 34.5331 37.5756 35.3021 38.3126C36.0747 39.0496 36.5696 40.075 36.6195 41.2179L36.9542 48.6771Z" fill="#404142"/>
<path d="M39.5461 57.9994H24.788C20.2484 57.9994 15.8583 56.1836 12.7429 53.0148C10.1188 50.348 8.70534 46.9798 8.76587 43.5297V43.4691L9.45304 32.0472C3.98416 30.6408 0 25.6063 0 19.8632C0 12.9239 5.6469 7.277 12.5827 7.277C14.2739 7.277 15.9188 7.60812 17.4677 8.25969C18.1655 8.55165 18.4931 9.35631 18.1975 10.0506C17.9056 10.7485 17.1045 11.076 16.4066 10.7805C15.1961 10.2714 13.9107 10.0114 12.5863 10.0114C7.15654 10.0114 2.738 14.43 2.738 19.8597C2.738 24.6841 6.33051 28.8712 11.0944 29.594L12.3299 29.7827L11.5003 43.6044C11.4647 46.3033 12.5969 48.9629 14.694 51.0957C17.2611 53.7055 21.0317 55.2614 24.788 55.2614H39.5461C43.2988 55.2614 47.0729 53.7019 49.64 51.0921C51.7371 48.9594 52.8694 46.2997 52.8338 43.6009L52.0042 29.7898L53.286 29.6367C58.2279 29.0457 61.9521 24.8408 61.9521 19.8597C61.9521 14.43 57.5336 10.0114 52.1039 10.0114C50.7794 10.0114 49.494 10.2714 48.2871 10.7805C47.5928 11.0725 46.7881 10.7485 46.4926 10.0506C46.2006 9.35275 46.5246 8.55165 47.2225 8.25613C48.7677 7.60456 50.4127 7.27344 52.1039 7.27344C59.0432 7.27344 64.6866 12.9203 64.6866 19.8561C64.6866 25.7879 60.5529 30.8544 54.8846 32.1326L55.5682 43.5261C55.6252 46.9726 54.2152 50.3408 51.5912 53.0076C48.4758 56.1765 44.0857 57.9923 39.5461 57.9923V57.9994Z" fill="#404142"/>
<path d="M21.9868 14.1641V20.929C24.876 19.3787 31.2041 16.4895 33.4027 17.3351C35.6013 18.1807 41.2247 20.0834 43.7616 20.929V14.1641C43.5502 9.93594 40.9287 1.56428 32.1343 1.90253C23.3398 2.24078 21.7049 10.2178 21.9868 14.1641Z" fill="#FE7F2D" stroke="#FE7F2D" stroke-width="0.422811"/>
<path d="M43.9011 15.9224H42.8508L42.6371 15.8263C42.2633 15.6554 41.8716 15.4916 41.4764 15.3385C40.5258 14.9682 39.5502 14.6549 38.5782 14.4092C34.7044 13.4301 30.5493 13.4194 26.6613 14.3665L25.1837 14.7866V13.4194C25.141 12.9779 25.1196 12.5293 25.1196 12.0807C25.1196 7.17434 27.7579 2.59914 32.0091 0.142419L32.2584 0H32.5432C39.155 0.00356047 44.5313 5.37987 44.5313 11.9845C44.5313 13.0491 44.3924 14.1066 44.1183 15.1284L43.9047 15.9188L43.9011 15.9224ZM32.5432 11.5252C34.7614 11.5252 36.9653 11.7994 39.098 12.337C40.159 12.6041 41.2201 12.9423 42.2526 13.3446C42.2668 13.3518 42.2846 13.3553 42.2989 13.3624C42.363 12.9067 42.395 12.4474 42.395 11.9845C42.395 6.65095 38.1296 2.29294 32.828 2.13984C29.3922 4.24408 27.2666 8.00749 27.2523 12.0451C28.997 11.6961 30.7665 11.5217 32.5432 11.5217V11.5252Z" fill="#404142"/>
<path d="M22.2324 15.9192H21.1856L20.9684 15.1288C20.6943 14.1105 20.5554 13.053 20.5554 11.9884C20.5519 5.38021 25.9317 0.00390625 32.5399 0.00390625H32.8248L33.0776 0.146325C37.3252 2.60305 39.9671 7.17825 39.9671 12.0846C39.9671 12.5546 39.9422 13.0245 39.8959 13.4803L39.7713 14.7122L38.5714 14.4096C34.7047 13.4304 30.5425 13.4197 26.6581 14.3704L26.4943 14.4131C26.3412 14.4487 26.1845 14.4914 26.035 14.5306C25.6042 14.6517 25.1983 14.7727 24.8102 14.9009C24.6072 14.9685 24.4043 15.0362 24.1978 15.111C24.0055 15.1822 23.7954 15.2605 23.5925 15.3388C23.208 15.4884 22.8163 15.6557 22.4353 15.8266L22.2253 15.9228L22.2324 15.9192ZM32.2587 2.14375C26.9536 2.29685 22.6881 6.65486 22.6881 11.9884C22.6881 12.4477 22.7202 12.907 22.7843 13.3628C22.7985 13.3557 22.8163 13.3521 22.8306 13.345C23.0513 13.2631 23.2614 13.1812 23.475 13.1029C23.7064 13.021 23.9236 12.9462 24.1444 12.875C24.5681 12.7361 25.0024 12.6044 25.4795 12.4727C25.654 12.4264 25.8214 12.3837 25.9923 12.3409L26.1382 12.3018C29.98 11.3618 34.0069 11.2835 37.8379 12.0525C37.8272 8.01496 35.6981 4.24798 32.2622 2.14731L32.2587 2.14375Z" fill="#404142"/>
<path d="M43.9013 15.9228H42.851L42.6373 15.8266C42.2635 15.6557 41.8718 15.4919 41.4766 15.3388C40.526 14.9685 39.5504 14.6552 38.5784 14.4096C34.7046 13.4304 30.5496 13.4197 26.6615 14.3668L26.6188 14.3775C26.5974 14.3811 26.5796 14.3882 26.5583 14.3918L26.4977 14.406C26.3482 14.4416 26.2022 14.4808 26.0527 14.5235C25.6076 14.6481 25.2017 14.7692 24.8136 14.8973C24.6107 14.965 24.4077 15.0326 24.2012 15.1074C24.009 15.1786 23.7989 15.2569 23.596 15.3353C23.2114 15.4848 22.8198 15.6522 22.4388 15.8231L22.2287 15.9192H21.182L20.9648 15.1288C20.6906 14.1105 20.5518 13.053 20.5518 11.9884C20.5518 5.38021 25.9316 0.00390625 32.5398 0.00390625C39.1516 0.00746672 44.5279 5.38377 44.5279 11.9884C44.5279 13.053 44.3891 14.1105 44.1149 15.1323L43.9013 15.9228ZM32.5434 11.5256C34.7616 11.5256 36.9655 11.7997 39.0982 12.3374C40.1593 12.6044 41.2203 12.9426 42.2528 13.345C42.267 13.3521 42.2848 13.3557 42.2991 13.3628C42.3632 12.907 42.3952 12.4477 42.3952 11.9849C42.3952 6.55873 37.9767 2.14019 32.547 2.13663C27.1101 2.13663 22.6916 6.55517 22.6916 11.9849C22.6916 12.4442 22.7236 12.9035 22.7877 13.3592C22.802 13.3521 22.8198 13.3485 22.834 13.3414C23.0548 13.2595 23.2648 13.1776 23.4785 13.0993C23.7099 13.0174 23.9271 12.9426 24.1478 12.8714C24.5715 12.7326 25.0059 12.6008 25.483 12.4691C25.6575 12.4193 25.8319 12.373 26.01 12.3302C26.0669 12.316 26.1203 12.3018 26.1773 12.2875C28.2566 11.7819 30.4 11.5256 32.5505 11.5256H32.5434Z" fill="#404142"/>
<path d="M42.3556 21.7921C42.117 21.7921 41.8785 21.7565 41.647 21.6853H41.5295L41.2696 21.5287C41.202 21.4895 41.1343 21.4503 41.0631 21.4147C40.6465 21.1904 40.2122 20.9804 39.7458 20.7738C38.7915 20.3573 37.7911 20.019 36.7728 19.7734C34.0027 19.1111 31.076 19.1111 28.3095 19.7734C27.309 20.0155 26.3086 20.3537 25.3365 20.7738C24.92 20.9554 24.5141 21.1513 24.1331 21.3542L24.1189 21.372L23.9373 21.461C23.9052 21.4753 23.8732 21.4966 23.8447 21.5144L23.7521 21.5643C23.4317 21.7138 23.0792 21.7921 22.7267 21.7921C21.3844 21.7921 20.2949 20.7026 20.2949 19.3603C20.2949 19.2891 20.2985 19.2215 20.3056 19.1503L20.3163 19.0613L20.9394 14.7745V14.1621L21.5696 13.8737C21.9826 13.6885 22.4098 13.5069 22.8371 13.3396C23.0578 13.2577 23.2679 13.1758 23.4815 13.0975C23.713 13.0156 23.9302 12.9408 24.1509 12.8696C24.5746 12.7308 25.009 12.599 25.4861 12.4673C25.6605 12.421 25.8279 12.3783 25.9988 12.3355L26.1448 12.2964C30.4102 11.2532 34.9071 11.271 39.112 12.3355C40.173 12.6026 41.234 12.9408 42.2666 13.3432C42.6226 13.482 42.9787 13.628 43.324 13.7811H44.1643V14.7745L44.7624 18.8975C44.7909 19.0399 44.8052 19.1894 44.8052 19.3568C44.8052 20.6991 43.7157 21.7886 42.3734 21.7886L42.3556 21.7921ZM42.2772 19.6452C42.4766 19.7021 42.6511 19.5455 42.6511 19.3603C42.6511 19.3497 42.6511 19.339 42.6511 19.3283L42.6333 19.2393L42.1099 15.5934C41.8998 15.5044 41.6898 15.4189 41.4761 15.337C40.5255 14.9667 39.5499 14.6534 38.5779 14.4077C34.7041 13.4286 30.5491 13.4179 26.661 14.365L26.4973 14.4077C26.3442 14.4433 26.1875 14.4861 26.038 14.5252C25.6071 14.6463 25.2012 14.7673 24.8132 14.8955C24.6102 14.9632 24.4073 15.0308 24.2008 15.1056C24.0085 15.1768 23.7984 15.2551 23.5955 15.3335C23.389 15.4153 23.1789 15.5008 22.9724 15.5862L22.4276 19.3283C22.4276 19.3283 22.4276 19.3461 22.4276 19.3568C22.4276 19.5206 22.5594 19.6523 22.7232 19.6523C22.7516 19.6523 22.7801 19.6487 22.8015 19.6416L22.8157 19.6274L22.9902 19.5419C23.4566 19.2891 23.9586 19.0435 24.482 18.8156C25.568 18.342 26.6895 17.9646 27.8111 17.694C30.9051 16.9499 34.1772 16.9499 37.2748 17.694C38.4177 17.9682 39.5392 18.3456 40.6074 18.8156C41.1308 19.047 41.6114 19.282 42.0814 19.5348C42.1491 19.5704 42.2132 19.606 42.2808 19.6452H42.2772Z" fill="#404142"/>
</svg>
